<?xml version="1.0" standalone="no"?>
<!DOCTYPE svg PUBLIC "-//W3C//DTD SVG 20010904//EN"
 "http://www.w3.org/TR/2001/REC-SVG-20010904/DTD/svg10.dtd">
<svg version="1.0" xmlns="http://www.w3.org/2000/svg"
 width="512.000000pt" height="512.000000pt" viewBox="0 0 512.000000 512.000000"
 preserveAspectRatio="xMidYMid meet">

<g transform="translate(0.000000,512.000000) scale(0.100000,-0.100000)"
fill="#000000" stroke="none">
<path d="M270 5111 c-78 -24 -157 -99 -178 -169 -8 -27 -12 -148 -12 -380 l0
-341 26 -20 c43 -34 86 -26 109 20 12 23 15 87 15 353 l0 326 29 32 29 33
1912 0 1912 0 29 -33 29 -32 0 -951 0 -951 30 -30 c25 -24 36 -29 58 -23 15 3
35 14 44 22 17 15 18 74 18 976 0 707 -3 970 -12 999 -15 50 -78 122 -132 151
l-41 22 -1920 2 c-1056 1 -1931 -2 -1945 -6z"/>
<path d="M433 4660 c-12 -5 -26 -18 -32 -29 -7 -13 -11 -125 -11 -316 l0 -296
25 -24 c13 -14 36 -25 50 -25 14 0 37 11 50 25 23 22 25 32 25 120 l0 95 56 0
c85 0 133 18 184 70 74 74 90 166 44 258 -48 96 -125 132 -278 131 -50 0 -101
-4 -113 -9z m236 -166 c39 -33 41 -74 6 -109 -20 -21 -34 -25 -80 -25 l-55 0
0 80 0 80 49 0 c39 0 56 -6 80 -26z"/>
<path d="M955 4645 l-25 -24 0 -305 0 -305 26 -20 c33 -26 65 -27 95 -2 20 16
24 30 29 101 l5 83 69 -79 c95 -109 113 -124 145 -124 36 0 71 38 71 77 0 23
-16 48 -70 109 -38 43 -70 82 -70 86 0 4 8 9 18 12 28 9 81 65 103 108 23 44
25 124 5 172 -21 51 -83 104 -139 121 -29 9 -90 15 -144 15 -86 0 -96 -2 -118
-25z m239 -146 c58 -46 15 -119 -70 -119 l-44 0 0 70 0 70 44 0 c29 0 52 -7
70 -21z"/>
<path d="M1680 4654 c-212 -56 -318 -291 -221 -488 143 -291 567 -243 647 73
45 180 -69 368 -253 416 -70 18 -102 18 -173 -1z m145 -145 c55 -15 120 -82
135 -138 35 -131 -76 -262 -211 -249 -64 7 -124 48 -157 108 -45 84 -15 202
64 250 63 39 105 46 169 29z"/>
<path d="M2364 4658 c-40 -19 -44 -48 -44 -294 0 -263 1 -260 -69 -223 -36 18
-46 20 -70 9 -17 -7 -35 -25 -42 -42 -16 -38 0 -72 50 -105 89 -60 205 -32
258 62 22 39 23 49 23 298 l0 258 -25 24 c-26 27 -47 30 -81 13z"/>
<path d="M3264 4656 c-103 -26 -186 -95 -236 -195 -32 -65 -33 -214 -1 -283
30 -66 102 -139 170 -173 50 -25 70 -29 143 -30 73 0 93 4 142 28 104 51 140
130 82 176 -37 29 -54 27 -107 -15 -136 -106 -321 2 -305 177 14 137 159 213
290 151 58 -27 69 -27 102 -1 31 24 36 78 9 105 -55 55 -195 84 -289 60z"/>
<path d="M3667 4650 c-20 -16 -27 -30 -27 -56 0 -52 28 -74 95 -74 l55 0 0
-254 0 -255 26 -20 c33 -26 65 -27 95 -2 24 19 24 20 27 275 l3 256 54 0 c46
0 56 4 74 26 26 33 27 65 2 95 -19 23 -24 24 -198 27 -170 3 -180 2 -206 -18z"/>
<path d="M2617 4648 c-9 -7 -21 -26 -27 -41 -13 -38 -14 -546 0 -583 19 -49
34 -53 186 -54 134 0 141 1 162 23 31 33 29 80 -4 106 -23 18 -41 21 -115 21
l-89 0 0 60 0 60 75 0 c86 0 119 12 135 49 12 30 1 73 -22 88 -7 4 -51 10 -98
13 l-85 5 -3 58 -3 57 89 0 c75 0 93 3 116 21 33 26 36 79 6 109 -18 18 -33
20 -163 20 -99 0 -148 -4 -160 -12z"/>
<path d="M102 3957 l-22 -24 2 -1804 3 -1804 32 -68 c38 -79 114 -163 181
-200 107 -58 87 -57 1055 -57 l888 0 24 25 c32 31 32 69 0 100 l-24 25 -700 0
-701 0 30 47 c59 92 72 145 78 307 5 145 5 150 33 180 l27 31 1912 0 1912 0
30 -34 30 -33 -4 -152 c-3 -144 -4 -153 -30 -198 -37 -62 -97 -111 -159 -131
-46 -15 -153 -17 -1106 -17 l-1054 0 -24 -25 c-32 -31 -32 -69 0 -100 l24 -25
1058 0 c1155 0 1117 -2 1225 57 67 37 143 121 181 200 31 66 32 72 35 227 4
187 -4 227 -61 292 -76 87 -84 89 -389 92 l-268 3 0 58 0 57 63 -4 c113 -7
164 37 267 231 34 63 41 87 41 131 0 89 -42 152 -139 206 l-38 22 0 123 0 123
38 22 c98 55 138 115 138 206 0 47 -7 69 -41 133 -102 191 -153 236 -266 229
l-63 -4 0 148 c0 135 -2 150 -20 168 -27 27 -81 26 -106 -1 -17 -19 -19 -40
-22 -185 -2 -90 -5 -164 -6 -164 -2 0 -30 16 -62 35 -33 20 -69 38 -81 41 -21
6 -23 12 -23 68 0 82 -15 129 -53 173 -53 61 -93 73 -243 73 -74 0 -146 -5
-165 -12 -93 -32 -139 -103 -139 -216 l0 -72 -62 -31 c-35 -17 -82 -45 -106
-61 l-43 -30 -69 36 c-51 27 -80 36 -116 36 -58 0 -119 -26 -155 -66 -38 -41
-138 -222 -145 -262 -17 -89 28 -175 119 -228 l62 -37 0 -122 0 -122 -62 -37
c-91 -53 -136 -139 -119 -228 7 -40 107 -221 145 -262 36 -40 97 -66 155 -66
36 0 65 9 116 36 l69 36 43 -30 c24 -16 71 -44 106 -61 55 -28 62 -35 62 -61
l0 -30 -1207 -2 -1208 -3 -41 -22 c-45 -24 -109 -90 -126 -131 -6 -15 -14 -97
-18 -183 -5 -143 -8 -160 -34 -212 -103 -212 -384 -222 -504 -19 l-27 47 -5
1798 -5 1799 -24 19 c-32 26 -73 24 -99 -4z m3732 -1369 c12 -17 16 -48 16
-118 0 -87 2 -98 23 -117 12 -11 33 -24 47 -28 47 -14 155 -75 204 -115 26
-22 57 -40 68 -40 11 0 59 21 107 47 115 61 121 59 189 -57 75 -127 72 -140
-36 -205 -46 -27 -88 -58 -94 -68 -6 -12 -6 -46 2 -104 8 -65 8 -109 0 -175
-14 -109 -13 -112 95 -176 105 -63 107 -76 33 -202 -68 -116 -74 -118 -189
-57 -48 26 -96 47 -107 47 -11 0 -42 -18 -68 -41 -27 -22 -92 -61 -144 -86
-132 -64 -130 -62 -130 -150 l0 -73 -150 0 -150 0 0 63 c0 89 -12 105 -105
144 -44 18 -113 58 -154 88 -41 30 -83 55 -94 55 -11 0 -55 -21 -98 -46 -111
-65 -120 -62 -191 56 -32 52 -58 104 -58 116 0 26 28 51 112 99 77 44 90 68
77 136 -4 24 -8 76 -8 114 0 39 4 90 8 114 13 68 0 92 -77 136 -84 48 -112 73
-112 99 0 12 26 64 58 116 71 118 78 120 190 56 43 -25 88 -46 99 -46 11 0 53
25 94 55 41 30 110 70 154 88 54 23 84 42 92 58 7 14 13 62 13 113 0 125 1
126 151 126 110 0 119 -1 133 -22z m336 -1643 l0 -75 -85 0 -85 0 0 33 c0 28
5 34 43 50 24 9 59 28 78 42 18 13 37 24 42 25 4 0 7 -34 7 -75z"/>
<path d="M3559 2057 c-102 -43 -173 -110 -218 -206 -22 -49 -26 -69 -26 -156
0 -93 2 -105 32 -166 39 -80 111 -150 191 -187 50 -24 69 -27 162 -27 96 0
110 3 165 29 115 57 193 163 216 294 28 159 -65 334 -216 407 -50 24 -75 29
-155 32 -82 3 -103 0 -151 -20z m236 -146 c88 -40 138 -119 138 -216 0 -135
-100 -234 -236 -235 -98 0 -172 46 -213 135 -57 121 -1 268 121 321 44 19 143
17 190 -5z"/>
<path d="M585 3795 c-14 -13 -25 -36 -25 -50 0 -14 11 -37 25 -50 l24 -25
1591 0 1591 0 24 25 c32 31 32 69 0 100 l-24 25 -1591 0 -1591 0 -24 -25z"/>
<path d="M617 3466 c-90 -33 -163 -108 -187 -196 -6 -20 -10 -198 -10 -417 0
-358 1 -386 20 -436 24 -63 83 -126 148 -159 l47 -23 695 0 695 0 57 28 c32
16 73 46 92 69 65 75 66 86 66 532 0 400 0 401 -24 451 -30 65 -104 131 -169
150 -71 21 -1371 22 -1430 1z m1398 -150 c19 -8 44 -30 55 -48 19 -32 20 -50
20 -412 0 -364 -1 -380 -20 -412 -41 -66 -30 -65 -755 -62 -724 3 -682 -1
-725 71 -19 30 -20 53 -20 402 0 414 1 419 71 457 32 17 73 18 687 18 545 0
658 -2 687 -14z"/>
<path d="M1413 3190 c-12 -5 -26 -18 -32 -29 -7 -13 -11 -129 -11 -329 0 -290
1 -311 19 -333 19 -24 20 -24 272 -27 270 -3 298 1 318 44 15 34 15 603 0 637
-6 14 -22 30 -36 36 -29 13 -497 14 -530 1z m427 -355 l0 -215 -160 0 -160 0
0 215 0 215 160 0 160 0 0 -215z"/>
<path d="M700 2900 c-19 -19 -20 -33 -20 -204 l0 -185 26 -20 c25 -20 39 -21
279 -21 240 0 254 1 279 21 l26 20 0 185 c0 171 -1 185 -20 204 -19 19 -33 20
-285 20 -252 0 -266 -1 -285 -20z m440 -205 l0 -75 -155 0 -155 0 0 75 0 75
155 0 155 0 0 -75z"/>
<path d="M2472 3183 c-7 -3 -19 -17 -27 -33 -19 -36 -4 -83 31 -99 18 -8 227
-11 740 -11 l715 0 24 25 c14 13 25 36 25 50 0 14 -11 37 -25 50 l-24 25 -723
-1 c-398 0 -729 -3 -736 -6z"/>
<path d="M2459 2882 c-33 -27 -30 -78 5 -109 l27 -23 450 0 450 0 24 25 c32
31 33 74 2 103 -23 22 -25 22 -479 22 -428 0 -457 -1 -479 -18z"/>
<path d="M440 2018 c-39 -42 -16 -109 42 -123 13 -3 480 -4 1039 -3 984 3
1018 4 1038 22 27 25 28 79 1 106 -20 20 -33 20 -1060 20 l-1039 0 -21 -22z"/>
<path d="M440 1730 c-43 -43 -14 -113 52 -125 18 -3 516 -5 1106 -3 l1074 3
19 24 c25 30 24 76 -1 101 -20 20 -33 20 -1125 20 -1092 0 -1105 0 -1125 -20z"/>
<path d="M464 1456 c-48 -21 -60 -80 -24 -116 20 -20 33 -20 1064 -20 l1045 0
15 22 c23 32 20 81 -5 104 -20 18 -54 19 -1043 21 -842 2 -1026 0 -1052 -11z"/>
<path d="M463 1160 c-46 -19 -57 -83 -20 -118 23 -22 23 -22 534 -22 472 0
512 1 531 18 12 9 24 29 28 44 5 22 0 33 -24 58 l-30 30 -499 -1 c-274 0 -508
-4 -520 -9z"/>
</g>
</svg>
